<?xml version="1.0" encoding="iso-8859-1"?>
<!-- Uploaded to: SVG Repo, www.svgrepo.com, Generator: SVG Repo Mixer Tools -->
<svg fill="#000000" version="1.1" id="Layer_1" xmlns="http://www.w3.org/2000/svg" xmlns:xlink="http://www.w3.org/1999/xlink" 
	 viewBox="0 0 512 512" xml:space="preserve">
<g>
	<g>
		<rect x="144.791" width="109.934" height="43.102"/>
	</g>
</g>
<g>
	<g>
		<rect x="286.762" y="129.829" width="132.263" height="35.182"/>
	</g>
</g>
<g>
	<g>
		<path d="M511.441,285.268V74.449H120.827l-46.519,42.193L0.559,185.637v99.631h104.197v46.571H92.217v31.347h12.539v12.675H79.282
			c-11.525,0-20.898,9.373-20.898,20.898v94.344c0,11.525,9.373,20.898,20.898,20.898h82.286c11.525,0,20.898-9.373,20.898-20.898
			v-94.344c0-11.525-9.373-20.898-20.898-20.898h-25.464v-12.675h12.539v-31.347h-12.539v-46.571H511.441z M450.367,98.482v97.876
			H255.41V98.482H450.367z M104.756,480.653H89.731v-73.446h15.026V480.653z M151.118,407.207v73.446h-15.015v-73.446H151.118z"/>
	</g>
</g>
</svg>